<svg width="18" height="20" viewBox="0 0 18 20" fill="none" xmlns="http://www.w3.org/2000/svg">
    <path d="M4.83333 9.16667V5.83334C4.83333 4.72827 5.27232 3.66846 6.05372 2.88706C6.83512 2.10566 7.89493 1.66667 9 1.66667C10.1051 1.66667 11.1649 2.10566 11.9463 2.88706C12.7277 3.66846 13.1667 4.72827 13.1667 5.83334V9.16667M3.16667 9.16667H14.8333C15.7538 9.16667 16.5 9.91286 16.5 10.8333V16.6667C16.5 17.5871 15.7538 18.3333 14.8333 18.3333H3.16667C2.24619 18.3333 1.5 17.5871 1.5 16.6667V10.8333C1.5 9.91286 2.24619 9.16667 3.16667 9.16667Z" stroke="#F3F3F3" strokeWidth="2" strokeLinecap="round" strokeLinejoin="round"/>
</svg>